<?xml version="1.0" encoding="UTF-8"?>
<svg version="1.1" xmlns="http://www.w3.org/2000/svg" width="225" height="224">
<path d="M0 0 C74.25 0 148.5 0 225 0 C225 73.92 225 147.84 225 224 C150.75 224 76.5 224 0 224 C0 150.08 0 76.16 0 0 Z " fill="#FF2842" transform="translate(0,0)"/>
<path d="M0 0 C3.96 0 7.92 0 12 0 C12 1.32 12 2.64 12 4 C12.73605469 3.96519531 13.47210938 3.93039063 14.23046875 3.89453125 C24.27740033 3.61581848 24.27740033 3.61581848 28 7 C32.21899922 11.21899922 32.24401567 14.44452422 32.25 20.375 C32.18597167 22.58397735 32.10884934 24.79277723 32 27 C33.62808594 26.92652344 33.62808594 26.92652344 35.2890625 26.8515625 C40.43726119 27.05749045 41.45879659 28.45879659 45 32 C47.11070592 36.22141183 46.27376262 41.73684485 46.3125 46.375 C46.34150391 47.52484375 46.37050781 48.6746875 46.40039062 49.859375 C46.40876953 50.96539062 46.41714844 52.07140625 46.42578125 53.2109375 C46.44036377 54.22462402 46.45494629 55.23831055 46.4699707 56.28271484 C45.87728822 59.70949718 44.66290812 60.84178965 42 63 C38.99686252 64.50156874 36.20932478 64.09281204 32.875 64.0625 C31.59367187 64.05347656 30.31234375 64.04445313 28.9921875 64.03515625 C28.00476563 64.02355469 27.01734375 64.01195312 26 64 C23 58.375 23 58.375 23 55 C26.3 54.34 29.6 53.68 33 53 C33.05391993 51.20866022 33.09275571 49.41686101 33.125 47.625 C33.14820313 46.62726563 33.17140625 45.62953125 33.1953125 44.6015625 C33.27216848 41.83737827 33.27216848 41.83737827 31 40 C28.96939341 39.63105418 28.96939341 39.63105418 26.6484375 39.5859375 C25.88192871 39.55032715 25.11541992 39.5147168 24.32568359 39.47802734 C22.86509521 39.42702881 22.86509521 39.42702881 21.375 39.375 C18.28125 39.25125 15.1875 39.1275 12 39 C12 47.25 12 55.5 12 64 C8.04 64 4.08 64 0 64 C0 55.75 0 47.5 0 39 C-3.96 39 -7.92 39 -12 39 C-12 35.04 -12 31.08 -12 27 C-8.04 27 -4.08 27 0 27 C0 23.37 0 19.74 0 16 C-2.64 16 -5.28 16 -8 16 C-8 12.04 -8 8.08 -8 4 C-5.36 4 -2.72 4 0 4 C0 2.68 0 1.36 0 0 Z " fill="#FFFDFD" transform="translate(157,80)"/>
<path d="M0 0 C8.91 0 17.82 0 27 0 C27 3.96 27 7.92 27 12 C24.69 12 22.38 12 20 12 C20 24.21 20 36.42 20 49 C23.96 49 27.92 49 32 49 C32 52.63 32 56.26 32 60 C18.8 60 5.6 60 -8 60 C-5 51 -5 51 -4 49 C-0.37 49 3.26 49 7 49 C7 36.79 7 24.58 7 12 C4.69 12 2.38 12 0 12 C0 8.04 0 4.08 0 0 Z " fill="#FFFCFC" transform="translate(114,84)"/>
<path d="M0 0 C1.19496094 0.14888672 1.19496094 0.14888672 2.4140625 0.30078125 C4.375 0.6875 4.375 0.6875 5.375 1.6875 C5.48432177 3.40980485 5.5240787 5.13657587 5.53613281 6.86230469 C5.54574036 7.96725281 5.5553479 9.07220093 5.56524658 10.21063232 C5.56949646 11.41471741 5.57374634 12.61880249 5.578125 13.859375 C5.58382507 15.0890802 5.58952515 16.3187854 5.59539795 17.58575439 C5.60486693 20.19518163 5.61138942 22.80462092 5.61523438 25.4140625 C5.61962086 28.08933137 5.63351387 30.76427804 5.65625 33.43945312 C5.68668723 37.2878605 5.69728087 41.13586071 5.703125 44.984375 C5.7154718 46.18036316 5.7278186 47.37635132 5.74053955 48.60858154 C5.73753845 49.72613831 5.73453735 50.84369507 5.73144531 51.99511719 C5.73509094 52.97583191 5.73873657 53.95654663 5.74249268 54.96697998 C5.30480448 58.20715206 4.29489653 60.06008249 2.375 62.6875 C-1.96679511 65.54913769 -5.45528374 66.37029271 -10.625 65.6875 C-13.83146383 62.90856468 -14.15950501 59.78385593 -14.625 55.6875 C-12.645 55.0275 -10.665 54.3675 -8.625 53.6875 C-8.61620064 52.71697189 -8.61620064 52.71697189 -8.60722351 51.72683716 C-8.54344082 45.01112084 -8.45906123 38.2958905 -8.36254883 31.58056641 C-8.32923137 29.07216791 -8.30122098 26.56369322 -8.27856445 24.05517578 C-8.24514401 20.45572333 -8.19283414 16.85697361 -8.13671875 13.2578125 C-8.12713387 11.56714157 -8.12713387 11.56714157 -8.11735535 9.84231567 C-8.09756119 8.80138763 -8.07776703 7.76045959 -8.05737305 6.68798828 C-8.04626999 5.76865509 -8.03516693 4.8493219 -8.02372742 3.90213013 C-7.89214737 3.17130219 -7.76056732 2.44047424 -7.625 1.6875 C-4.3024775 -0.527515 -3.74768409 -0.50660876 0 0 Z " fill="#FFF6F6" transform="translate(51.625,79.3125)"/>
<path d="M0 0 C0.7940625 0.01417969 1.588125 0.02835937 2.40625 0.04296875 C3.59734375 0.05263672 3.59734375 0.05263672 4.8125 0.0625 C6.90625 0.23046875 6.90625 0.23046875 8.90625 1.23046875 C8.24934381 5.01286546 7.186119 8.44888401 5.84375 12.04296875 C5.48152344 13.01878906 5.11929688 13.99460937 4.74609375 15 C4.46894531 15.73605469 4.19179687 16.47210938 3.90625 17.23046875 C7.20625 17.23046875 10.50625 17.23046875 13.90625 17.23046875 C11.63189796 24.41263308 8.87040819 31.30628895 5.90625 38.23046875 C9.37125 38.72546875 9.37125 38.72546875 12.90625 39.23046875 C10.96554352 47.14257977 10.96554352 47.14257977 7.90625 49.23046875 C5.30583045 49.52916559 2.99925841 49.64992032 0.40625 49.60546875 C-0.27050781 49.61707031 -0.94726562 49.62867188 -1.64453125 49.640625 C-4.50949159 49.62367257 -6.63698978 49.50276811 -9.125 48.01953125 C-10.09375 46.23046875 -10.09375 46.23046875 -9.94140625 43.9375 C-8.9720322 40.84175708 -7.80919094 37.89983095 -6.53125 34.91796875 C-5.84869141 33.31501953 -5.84869141 33.31501953 -5.15234375 31.6796875 C-4.62833984 30.46732422 -4.62833984 30.46732422 -4.09375 29.23046875 C-5.0425 29.27171875 -5.99125 29.31296875 -6.96875 29.35546875 C-10.09375 29.23046875 -10.09375 29.23046875 -12.09375 27.23046875 C-12.77737972 20.58326061 -11.19802515 16.23154776 -8.21875 10.35546875 C-7.85394531 9.5975 -7.48914063 8.83953125 -7.11328125 8.05859375 C-3.35048339 0.36880321 -3.35048339 0.36880321 0 0 Z " fill="#FFF8F9" transform="translate(96.09375,78.76953125)"/>
<path d="M0 0 C0.33 0 0.66 0 1 0 C1 58.08 1 116.16 1 176 C-73.25 176 -147.5 176 -224 176 C-224 164.78 -224 153.56 -224 142 C-223.67 142 -223.34 142 -223 142 C-222.97421875 142.60585937 -222.9484375 143.21171875 -222.921875 143.8359375 C-222.29589198 153.08341388 -219.86352645 161.44151917 -213 168 C-205.93426498 172.7362304 -200.27877641 174.1188238 -191.77764893 174.14717102 C-191.06102168 174.15084771 -190.34439443 174.1545244 -189.60605121 174.1583125 C-187.21034189 174.169305 -184.81467602 174.17318559 -182.41894531 174.17700195 C-180.69884098 174.18326989 -178.97873799 174.18991698 -177.25863647 174.19691467 C-171.61514217 174.21791587 -165.97164771 174.22831247 -160.328125 174.23828125 C-158.38275895 174.24233009 -156.43739304 174.24644705 -154.49202728 174.25063133 C-145.35264639 174.26967329 -136.21327353 174.28390716 -127.07387662 174.2922433 C-116.53412755 174.30201635 -105.99458846 174.32834186 -95.45491338 174.36874419 C-87.30102209 174.39892557 -79.14719094 174.41371404 -70.99324489 174.41702431 C-66.12647725 174.4193722 -61.2599342 174.42829896 -56.39322662 174.45348549 C-51.81309391 174.47680704 -47.23333304 174.48098306 -42.65315628 174.47072411 C-40.97663509 174.47022965 -39.30009534 174.47652337 -37.62363052 174.49028015 C-25.94510517 174.58071469 -16.67528271 173.59981946 -7.93101788 165.10867119 C-0.57032854 157.0707997 -0.27271577 148.25539105 -0.34057617 137.81982422 C-0.33210883 136.31096581 -0.32145827 134.80211832 -0.30880737 133.29328918 C-0.28081432 129.22567493 -0.28310518 125.15859078 -0.29110122 121.09090948 C-0.29423914 116.82941867 -0.26915445 112.56809291 -0.24714661 108.30667114 C-0.20978319 100.24984139 -0.19756319 92.19318041 -0.1945222 84.13627255 C-0.18982299 74.95838344 -0.15687206 65.78066251 -0.12162435 56.60284781 C-0.04979166 37.73524803 -0.01318938 18.86772738 0 0 Z " fill="#FFD3D6" transform="translate(224,48)"/>
<path d="M0 0 C4.29 0 8.58 0 13 0 C16.30083899 30.09068404 16.30083899 30.09068404 11 41 C9.68 41 8.36 41 7 41 C1.77968573 28.18650133 0 13.79685826 0 0 Z " fill="#FFF8F9" transform="translate(64,96)"/>
<path d="M0 0 C4.29 0 8.58 0 13 0 C12.6384975 4.14574144 12.26982707 8.28957707 11.88305664 12.43286133 C11.75387108 13.83970982 11.62879245 15.24694219 11.50805664 16.65454102 C11.33282323 18.68883508 11.14240039 20.72124724 10.94921875 22.75390625 C10.83924561 23.97408447 10.72927246 25.1942627 10.6159668 26.45141602 C9.62825764 32.14160732 7.31316962 37.24632185 4 42 C3.34 42 2.68 42 2 42 C-4.28916498 28.24245161 -1.96567321 14.49683993 0 0 Z " fill="#FFF7F7" transform="translate(24,96)"/>
<path d="M0 0 C59.4 0 118.8 0 180 0 C180 0.33 180 0.66 180 1 C178.80012294 1.00081715 178.80012294 1.00081715 177.57600594 1.00165081 C158.08633147 1.01663687 138.59689362 1.05915748 119.10734749 1.13209057 C109.68221591 1.16670128 100.25722999 1.19209094 90.83203125 1.19555664 C82.61425383 1.19860199 74.39673608 1.2191691 66.17905891 1.26052457 C61.83028734 1.28180457 57.48188448 1.29448103 53.13306046 1.28615379 C49.03378096 1.27858178 44.93524659 1.29456303 40.83610344 1.32806015 C39.33742277 1.33625572 37.83866746 1.3360881 36.33999443 1.32659721 C25.4477019 1.26448638 17.4450373 2.88164895 9.125 10.25 C3.59593766 16.26155127 1.58194799 22.99821517 1 31 C0.67 31 0.34 31 0 31 C0 20.77 0 10.54 0 0 Z " fill="#FFD9DC" transform="translate(0,0)"/>
<path d="M0 0 C10.23 0 20.46 0 31 0 C31 10.23 31 20.46 31 31 C30.67 31 30.34 31 30 31 C29.81824219 30.20335938 29.63648438 29.40671875 29.44921875 28.5859375 C27.56079115 20.47850716 27.56079115 20.47850716 24 13 C23.484375 12.154375 22.96875 11.30875 22.4375 10.4375 C16.33728727 4.33728727 8.33698147 2.18846332 0 1 C0 0.67 0 0.34 0 0 Z " fill="#FFF9FA" transform="translate(194,0)"/>
<path d="M0 0 C0.33 0 0.66 0 1 0 C1.02578125 0.60585937 1.0515625 1.21171875 1.078125 1.8359375 C1.70410802 11.08341388 4.13647355 19.44151917 11 26 C16.37548787 29.69693515 21.63132481 31.72626496 28 33 C28 33.33 28 33.66 28 34 C18.76 34 9.52 34 0 34 C0 22.78 0 11.56 0 0 Z " fill="#FFF8F9" transform="translate(0,190)"/>
<path d="M0 0 C6.6 0 13.2 0 20 0 C18.68 3.63 17.36 7.26 16 11 C9.4 11 2.8 11 -4 11 C-2.68 7.37 -1.36 3.74 0 0 Z " fill="#FFFBFC" transform="translate(84,133)"/>
<path d="M0 0 C6.75 0.75 6.75 0.75 9 3 C9.55713272 8.23704755 9.55713272 8.23704755 7.7734375 10.6796875 C5.47752375 12.38898011 4.14141288 12.31049621 1.3125 12.1875 C0.10013672 12.14689453 0.10013672 12.14689453 -1.13671875 12.10546875 C-1.75160156 12.07066406 -2.36648437 12.03585938 -3 12 C-3.36923077 4.61538462 -3.36923077 4.61538462 -1.5 1.5 C-1.005 1.005 -0.51 0.51 0 0 Z " fill="#FFF9FA" transform="translate(194,84)"/>
<path d="M0 0 C2.64 0 5.28 0 8 0 C8 3.63 8 7.26 8 11 C5.36 11 2.72 11 0 11 C0 7.37 0 3.74 0 0 Z " fill="#FF3D55" transform="translate(169,96)"/>
<path d="M0 0 C1.65 0 3.3 0 5 0 C5 2.31 5 4.62 5 7 C3.35 7 1.7 7 0 7 C0 4.69 0 2.38 0 0 Z " fill="#FF2842" transform="translate(171,98)"/>
</svg>
